<?xml version="1.0" encoding="UTF-8"?>
<svg id="Layer_1" data-name="Layer 1" xmlns="http://www.w3.org/2000/svg" viewBox="0 0 646.39 851.83">
  <defs>
    <style>
      .cls-1 {
        fill: #fff;
      }

      .cls-2 {
        fill: #c4803d;
      }

      .cls-3 {
        fill: #52230a;
      }
    </style>
  </defs>
  <path class="cls-3" d="M358.43,548.59c23.85-.88,46.48,1.4,68.91,6.61,37.4,8.68,63.81,30.67,64.7,71.64-1,72.07-70.46,129.79-136.54,146.41-25.4,38.2-63.21,66.35-109.8,78.58l8.43-19c8.17-17.65,10.37-36.96,4.61-55.5-72.77-10.14-139.38-52.32-155.64-127.82-5.4-25.1.21-47.3,2.87-72.18,2.68-25.15-11.48-50.38-27.96-68.07l-38.26-41.08c-14.07-15.11-24.87-31.79-32.5-51.04-13.84-34.91-7.86-73.97,17.63-101.58,22.98-24.89,56.33-34.55,89.29-26.67,36.03,8.61,62.26,35.9,72.86,71.59,1.86-24.59-5.16-50.12-11.62-75.64-3.98-15.72,1.01-31.04,15.17-39.84l29.9-18.57c10.74-6.67,19.55-15.18,26.16-25.17,10.77-16.28,12.92-33.79,12.92-33.79,1.26-5.68,1.89-10.58,6.01-14.65,5.38-5.32,13.37-5.95,19.06-5.69.84,1.93,1.58,4.48.41,6.2-1.05,1.56-2.9,1.29-4.59,2.53-3.15,2.3-2.85,7.65-2.81,9.36.28,12.47-7.93,39.02-13.21,47.61-6.26,10.2-14.71,19.16-25.23,26.53l-29.48,20.62c-6.69,4.68-8.96,11.56-6.94,19.4,3.12,12.1,6.16,23.8,8.53,36.2,13.21,69.17-7.98,123.63-42.32,181.59-21.22,35.82-44.96,73.36-46.24,116.56-1.32,44.54,20.88,84.74,56.22,110.97,27.97,20.65,60.16,31.7,94.32,35.77,9.21,20.54,8.56,41.47,1.59,61.91,29.03-15.26,50.16-38.44,66.32-65.74,56.05-12.83,116.84-57.28,127.42-116.67,5.71-43.63-20.42-66.68-59.13-78.17-18.56-5.51-37.18-9.48-56.6-10.93l-18.5-1.38,24.04-.88ZM112.76,559.21l27.26-53.8,27.49-52.94c5.35-13.87,10.27-27.18,12.81-41.71,5.98-34.2-8.17-66-36.52-85.42-25.74-17.63-58.97-19.71-85.2-1.81-44.71,30.52-34.44,89.95-4.58,128.97l33.77,44.12c14.1,18.42,21.71,39.73,24.97,62.59Z"/>
  <path class="cls-2" d="M446.57,271.92c-24.25,10.52-45.41,24.21-67.15,38.29,0,0-3.45,1.78-3.54,1.82-2.2,7.47-4.03,14.46-5.31,23.41,13.74-6.35,23.75-12.73,36.02-20.52,71.17-46.43,144.11-67.2,221.89-25.11-99.82-13.15-185.97,55.11-211.51,148.12-4.45,20.08-7.76,39.92-2.87,59.96,12.18-73.47,55.34-136.54,118.31-174.19,34.66-20.72,72.58-29.57,113.99-27.61-56.48-52-132.67-53.29-199.82-24.17Z"/>
  <path class="cls-2" d="M294.74,140.02l-20.93.14c1.76-19.88-16.21-14.3-15.13-32.73.4-6.76,3.08-11.63,8.75-15.83,6.42-4.76,11.68-15.07,7.24-22.89l-9.03-15.9c8.16-17.13,13.2-33.62,17.61-52.8,4.73,15.74,7.64,31.62,14.88,46,3.25,6.45,3.63,10.67-1.82,16.08-8.91,8.83-5.49,24.08,4.99,30.75,5.38,3.43,8.4,9.49,8.42,15.16.06,18.35-17.69,12.32-14.98,32.03Z"/>
  <path class="cls-3" d="M413.68,605.46c-9.27,63.19-47.51,127.21-117.84,129.86-53.51,2.01-93.22-28.24-114.67-75.21-9.73-21.31-16.89-43.15-20.9-66.63-2.68-15.7,22.55-27.79,34.97-31.51,30.78-9.2,62.41-13.32,94.84-11.12-24.63,3.23-49.24,6.62-73.55,13.67-12.51,4.3-23.66,8.85-34.56,15.87-3.39,3.64-6.71,7.93-6.66,12.34.21,16.14,31.96,25.71,45.76,29.84,49.4,12.08,100.69,12.27,150.2.55,15.17-4.08,28.11-9.08,42.42-17.66Z"/>
  <path class="cls-2" d="M287.59,534.31c-1.04.96-28.15-13.68-31.82-40.07-2.46-17.68,6.57-33.82,8.6-37.5,2.48-4.5,2.35-3.15,7.35-11.14,6.82-10.9,12.33-19.71,15.18-29.51,1.82-6.27,3.99-17.86-.06-33.79,5.11,5.73,13.15,16.57,14.26,31.22,1.03,13.52-4.31,24.75-9.06,34.77-6.86,14.47-15.38,24.09-17.86,37.17-1.34,7.07-.92,14-.92,14,.08,1.24.39,5.72,1.78,10.92,3.92,14.76,13.24,23.31,12.55,23.94Z"/>
  <path class="cls-2" d="M322.82,469.9c-5.78,12.79-9.8,17.03-12.03,22.77-2.85,7.35-3.6,19.35,7.62,39.07-4.2-2.52-16.02-10.37-20.2-24.98-2.92-10.21-.76-19.03.73-24.84,4.54-17.61,13.6-20.72,18.64-36.96,1.82-5.87,3.64-15.15,1.79-27.92,2.62,2.97,7.71,9.57,9.74,19.46,1.56,7.61.64,13.97-.19,17.64-1.18,3.62-3.14,9.18-6.11,15.75Z"/>
  <path class="cls-1" d="M381,265.82c.15,4.48.1,9.33-.23,14.49-.59,9.12-1.96,17.26-3.58,24.24-.44,2.49-.88,4.97-1.32,7.46.37-.21.73-.41,1.1-.62,3.51-8.13,5.97-14.82,7.57-19.42,2.36-6.82,5.58-16.99,5.58-16.99-.26-5.8-.52-11.61-.77-17.41-.18-.51-.36-1.01-.53-1.52"/>
  <path class="cls-2" d="M287.24,152.44c1.2,1.84,3.55.65,6.36,2.2,3.46,1.91,4.59,6.32,5.62,10.33.52,2.01.7,3.82,1.06,7.44.32,3.25.45,5.95.51,7.81l1.33,6.75,3.03,7.53,4.27,8.77c1.31,2.17,3.15,4.96,5.6,8.04,1.66,2.08,3.42,4.29,6.11,6.75,1.18,1.08,1.96,1.68,8.95,6.57,4.75,3.32,7.15,4.99,8.31,5.74,3.23,2.08,3.52,2.06,9.74,5.76,3.46,2.06,6,3.63,10.14,6.18,3.45,2.13,6.42,3.99,8.77,5.46,3.18,1.62,5.61,3.32,7.3,4.64,4.38,3.42,5.39,5.55,5.69,6.24.36.84.63,1.71.96,3.95.87,5.76.74,8.7.69,10.38-.06,1.81-.17,3.47-1.5,13.62-.68,5.23-1.03,7.85-1.31,9.63-.62,3.96-1.46,8.51-2.61,13.54-.03.19-.31,1.76-.35,1.95,0,0-.05.3-.05.31.36-.18.71-.36,1.07-.55,1.02-2.41,2.31-5.53,3.74-9.19.44-1.13,2.16-5.56,4.53-12.27,2.77-7.85,4.16-11.82,4.49-14.43.57-4.41.39-8.83.29-11.32-.11-2.73-.34-5.03-.54-6.7-.8-2.22-1.98-4.83-3.74-7.55-3.79-5.84-8.46-9.37-11.57-11.32-2.52-1.99-6.51-4.99-11.75-8.17-4.34-2.64-6.5-3.56-10.74-6.06-3.31-1.95-8.08-4.96-13.61-9.25-3.98-2.7-8.7-6.43-13.41-11.46-3.46-3.7-6.19-7.32-8.31-10.54-2.69-3.86-4.61-7.26-5.92-9.83-1.78-3.47-2.35-5.21-2.66-6.24-.85-2.85-1.14-5.38-1.22-7.32-.25-6.1-2.96-10.3-3.34-11.1-1.43-3.05-2.68-5.71-5.49-8.02-2.78-2.28-7.75-4.76-9.87-2.96-1.19,1-1.45,3.32-.55,4.71Z"/>
  <path class="cls-2" d="M188.43,596.07c.15-8.7,33.07-14.92,47.15-17.58,19.08-3.6,34.15-4.35,50.57-5.17,13.08-.65,25.01-1.21,41-.25,16.16.97,29.7,3.08,39.72,5.02,38.77,7.67,44.85,13.84,44.84,17.54-.03,10.62-50.39,18.92-57.08,20.02-21.09,3.47-37.56,3.58-51.74,3.67-31.67.2-54.55-3.23-60.52-4.16-14.85-2.33-27.34-5.29-36.78-7.85-14.38-4.85-17.2-8.68-17.15-11.25Z"/>
</svg>