<?xml version="1.0" encoding="UTF-8"?>
<svg id="Layer_1" data-name="Layer 1" xmlns="http://www.w3.org/2000/svg" viewBox="0 0 1819.89 851.83">
  <defs>
    <style>
      .cls-1 {
        fill: none;
        stroke: #c4803d;
        stroke-miterlimit: 10;
        stroke-width: 4px;
      }

      .cls-2 {
        fill: #fff;
      }

      .cls-3 {
        fill: #c4803d;
      }

      .cls-4 {
        font-family: AdobeArabic-Regular, 'Adobe Arabic';
        font-size: 69.06px;
      }

      .cls-4, .cls-5 {
        fill: #52230a;
      }
    </style>
  </defs>
  <path class="cls-5" d="M358.43,548.59c23.85-.88,46.48,1.4,68.91,6.61,37.4,8.68,63.81,30.67,64.7,71.64-1,72.07-70.46,129.79-136.54,146.41-25.4,38.2-63.21,66.35-109.8,78.58l8.43-19c8.17-17.65,10.37-36.96,4.61-55.5-72.77-10.14-139.38-52.32-155.64-127.82-5.4-25.1.21-47.3,2.87-72.18,2.68-25.15-11.48-50.38-27.96-68.07l-38.26-41.08c-14.07-15.11-24.87-31.79-32.5-51.04-13.84-34.91-7.86-73.97,17.63-101.58,22.98-24.89,56.33-34.55,89.29-26.67,36.03,8.61,62.26,35.9,72.86,71.59,1.86-24.59-5.16-50.12-11.62-75.64-3.98-15.72,1.01-31.04,15.17-39.84l29.9-18.57c10.74-6.67,19.55-15.18,26.16-25.17,10.77-16.28,12.92-33.79,12.92-33.79,1.26-5.68,1.89-10.58,6.01-14.65,5.38-5.32,13.37-5.95,19.06-5.69.84,1.93,1.58,4.48.41,6.2-1.05,1.56-2.9,1.29-4.59,2.53-3.15,2.3-2.85,7.65-2.81,9.36.28,12.47-7.93,39.02-13.21,47.61-6.26,10.2-14.71,19.16-25.23,26.53l-29.48,20.62c-6.69,4.68-8.96,11.56-6.94,19.4,3.12,12.1,6.16,23.8,8.53,36.2,13.21,69.17-7.98,123.63-42.32,181.59-21.22,35.82-44.96,73.36-46.24,116.56-1.32,44.54,20.88,84.74,56.22,110.97,27.97,20.65,60.16,31.7,94.32,35.77,9.21,20.54,8.56,41.47,1.59,61.91,29.03-15.26,50.16-38.44,66.32-65.74,56.05-12.83,116.84-57.28,127.42-116.67,5.71-43.63-20.42-66.68-59.13-78.17-18.56-5.51-37.18-9.48-56.6-10.93l-18.5-1.38,24.04-.88ZM112.76,559.21l27.26-53.8,27.49-52.94c5.35-13.87,10.27-27.18,12.81-41.71,5.98-34.2-8.17-66-36.52-85.42-25.74-17.63-58.97-19.71-85.2-1.81-44.71,30.52-34.44,89.95-4.58,128.97l33.77,44.12c14.1,18.42,21.71,39.73,24.97,62.59Z"/>
  <path class="cls-3" d="M446.57,271.92c-24.25,10.52-45.41,24.21-67.15,38.29,0,0-3.45,1.78-3.54,1.82-2.2,7.47-4.03,14.46-5.31,23.41,13.74-6.35,23.75-12.73,36.02-20.52,71.17-46.43,144.11-67.2,221.89-25.11-99.82-13.15-185.97,55.11-211.51,148.12-4.45,20.08-7.76,39.92-2.87,59.96,12.18-73.47,55.34-136.54,118.31-174.19,34.66-20.72,72.58-29.57,113.99-27.61-56.48-52-132.67-53.29-199.82-24.17Z"/>
  <path class="cls-3" d="M294.74,140.02l-20.93.14c1.76-19.88-16.21-14.3-15.13-32.73.4-6.76,3.08-11.63,8.75-15.83,6.42-4.76,11.68-15.07,7.24-22.89l-9.03-15.9c8.16-17.13,13.2-33.62,17.61-52.8,4.73,15.74,7.64,31.62,14.88,46,3.25,6.45,3.63,10.67-1.82,16.08-8.91,8.83-5.49,24.08,4.99,30.75,5.38,3.43,8.4,9.49,8.42,15.16.06,18.35-17.69,12.32-14.98,32.03Z"/>
  <path class="cls-5" d="M413.68,605.46c-9.27,63.19-47.51,127.21-117.84,129.86-53.51,2.01-93.22-28.24-114.67-75.21-9.73-21.31-16.89-43.15-20.9-66.63-2.68-15.7,22.55-27.79,34.97-31.51,30.78-9.2,62.41-13.32,94.84-11.12-24.63,3.23-49.24,6.62-73.55,13.67-12.51,4.3-23.66,8.85-34.56,15.87-3.39,3.64-6.71,7.93-6.66,12.34.21,16.14,31.96,25.71,45.76,29.84,49.4,12.08,100.69,12.27,150.2.55,15.17-4.08,28.11-9.08,42.42-17.66Z"/>
  <path class="cls-3" d="M287.59,534.31c-1.04.96-28.15-13.68-31.82-40.07-2.46-17.68,6.57-33.82,8.6-37.5,2.48-4.5,2.35-3.15,7.35-11.14,6.82-10.9,12.33-19.71,15.18-29.51,1.82-6.27,3.99-17.86-.06-33.79,5.11,5.73,13.15,16.57,14.26,31.22,1.03,13.52-4.31,24.75-9.06,34.77-6.86,14.47-15.38,24.09-17.86,37.17-1.34,7.07-.92,14-.92,14,.08,1.24.39,5.72,1.78,10.92,3.92,14.76,13.24,23.31,12.55,23.94Z"/>
  <path class="cls-3" d="M322.82,469.9c-5.78,12.79-9.8,17.03-12.03,22.77-2.85,7.35-3.6,19.35,7.62,39.07-4.2-2.52-16.02-10.37-20.2-24.98-2.92-10.21-.76-19.03.73-24.84,4.54-17.61,13.6-20.72,18.64-36.96,1.82-5.87,3.64-15.15,1.79-27.92,2.62,2.97,7.71,9.57,9.74,19.46,1.56,7.61.64,13.97-.19,17.64-1.18,3.62-3.14,9.18-6.11,15.75Z"/>
  <path class="cls-2" d="M381,265.82c.15,4.48.1,9.33-.23,14.49-.59,9.12-1.96,17.26-3.58,24.24-.44,2.49-.88,4.97-1.32,7.46.37-.21.73-.41,1.1-.62,3.51-8.13,5.97-14.82,7.57-19.42,2.36-6.82,5.58-16.99,5.58-16.99-.26-5.8-.52-11.61-.77-17.41-.18-.51-.36-1.01-.53-1.52"/>
  <path class="cls-3" d="M287.24,152.44c1.2,1.84,3.55.65,6.36,2.2,3.46,1.91,4.59,6.32,5.62,10.33.52,2.01.7,3.82,1.06,7.44.32,3.25.45,5.95.51,7.81l1.33,6.75,3.03,7.53,4.27,8.77c1.31,2.17,3.15,4.96,5.6,8.04,1.66,2.08,3.42,4.29,6.11,6.75,1.18,1.08,1.96,1.68,8.95,6.57,4.75,3.32,7.15,4.99,8.31,5.74,3.23,2.08,3.52,2.06,9.74,5.76,3.46,2.06,6,3.63,10.14,6.18,3.45,2.13,6.42,3.99,8.77,5.46,3.18,1.62,5.61,3.32,7.3,4.64,4.38,3.42,5.39,5.55,5.69,6.24.36.84.63,1.71.96,3.95.87,5.76.74,8.7.69,10.38-.06,1.81-.17,3.47-1.5,13.62-.68,5.23-1.03,7.85-1.31,9.63-.62,3.96-1.46,8.51-2.61,13.54-.03.19-.31,1.76-.35,1.95,0,0-.05.3-.05.31.36-.18.71-.36,1.07-.55,1.02-2.41,2.31-5.53,3.74-9.19.44-1.13,2.16-5.56,4.53-12.27,2.77-7.85,4.16-11.82,4.49-14.43.57-4.41.39-8.83.29-11.32-.11-2.73-.34-5.03-.54-6.7-.8-2.22-1.98-4.83-3.74-7.55-3.79-5.84-8.46-9.37-11.57-11.32-2.52-1.99-6.51-4.99-11.75-8.17-4.34-2.64-6.5-3.56-10.74-6.06-3.31-1.95-8.08-4.96-13.61-9.25-3.98-2.7-8.7-6.43-13.41-11.46-3.46-3.7-6.19-7.32-8.31-10.54-2.69-3.86-4.61-7.26-5.92-9.83-1.78-3.47-2.35-5.21-2.66-6.24-.85-2.85-1.14-5.38-1.22-7.32-.25-6.1-2.96-10.3-3.34-11.1-1.43-3.05-2.68-5.71-5.49-8.02-2.78-2.28-7.75-4.76-9.87-2.96-1.19,1-1.45,3.32-.55,4.71Z"/>
  <path class="cls-3" d="M188.43,596.07c.15-8.7,33.07-14.92,47.15-17.58,19.08-3.6,34.15-4.35,50.57-5.17,13.08-.65,25.01-1.21,41-.25,16.16.97,29.7,3.08,39.72,5.02,38.77,7.67,44.85,13.84,44.84,17.54-.03,10.62-50.39,18.92-57.08,20.02-21.09,3.47-37.56,3.58-51.74,3.67-31.67.2-54.55-3.23-60.52-4.16-14.85-2.33-27.34-5.29-36.78-7.85-14.38-4.85-17.2-8.68-17.15-11.25Z"/>
  <g>
    <rect x="1336.65" y="485.93" width="468.26" height="5.82"/>
    <rect x="714.43" y="485.94" width="457.87" height="5.79"/>
    <path class="cls-5" d="M841,635.92c-1.24.73-4.77.95-7.4.53l-.07-54.69c0-1.16,3.82-3.11,4.62-2.39l4.28,3.82c5.17-4.31,13.02-5.71,19.77-2.8,6.3,2.71,10.79,9.22,11.3,17.03.51,7.88-3.19,15.31-9.44,18.78-6.69,3.71-13.65,3.6-22.24-1.49l-.82,21.22ZM865.67,598.81c0-6.87-5.57-12.45-12.45-12.45s-12.45,5.57-12.45,12.45,5.57,12.45,12.45,12.45,12.45-5.57,12.45-12.45Z"/>
    <path class="cls-3" d="M1587.3,600.89l-25.48-.04-5.15,12.15c-.99,2.32-7.76,2.25-9.4.1l22.86-54.08c1.91-1.34,7.01-1.33,8.96,0l22.87,54.24c-1.06,1.39-7.98,2.16-8.94.32-1.58-3.01-3.76-8.18-5.72-12.7ZM1584.03,592.86l-9.52-23.97-10.17,24.71,19.69-.74Z"/>
    <path class="cls-5" d="M918.87,586.16c-1.19,8.65,1.85,16.34,7.58,20.76,15.77,12.18,24.99-3.56,28.69-1.96,1.57.68,4.29,4.32,3.67,5.72-7.67,8-20.01,10.24-30.56,6.49-9.48-3.37-17.11-11.78-18.43-23.13-1.45-12.38,3.41-24.07,13.19-29.96,10.58-6.37,25.16-5.91,34.32,2.81,1.29,1.23-.86,4.92-2.27,5.43-5.97,2.17-10.39-9.77-25.06-2.81-5.7,2.7-10.06,8.93-11.12,16.64Z"/>
    <path class="cls-5" d="M783,618.42c-8.38,1.4-17.36-.61-22.05-6.67.06-1.91,3.79-5.71,5.43-5.75,5.3,4.51,11.24,7.37,18.17,4.09,2.09-.99,4.54-5.27,4.52-7.64-.06-8.16-11.18-8.41-21.38-14.57-6-3.63-6.36-11.25-4.31-17.73,1.47-4.64,7.1-9.18,13.46-9.99,7.38-.93,14.77.5,19.66,5.86-.73,2.01-4.22,5.42-6,5.48-4.62-3.08-9.99-5.35-15.45-2.77-2.28,1.08-4.41,5.28-4.16,7.8,1.08,10.95,34.04,7.02,26.07,31.17-1.76,5.32-7.13,9.57-13.96,10.71Z"/>
    <path class="cls-3" d="M1727.47,594.8c.33,9.06-4.28,15.67-10.27,18.69-7.27,3.67-15.24,2.12-20.97-2.23-.84,2.49-5.78,4.54-8.64,2.32l-.13-58.15c1.49-.68,5.77-.89,7.78-.43l.49,25.54c5.65-4.5,13.17-6.1,19.61-3.77,7.28,2.63,11.8,9.22,12.12,18.03ZM1719.61,595.54c0-6.83-5.54-12.37-12.37-12.37s-12.37,5.54-12.37,12.37,5.54,12.37,12.37,12.37,12.37-5.54,12.37-12.37Z"/>
    <path class="cls-3" d="M1320.11,611.88c-9.25,5.97-21.55,5.17-29.75-2.43-1.99-1.84,3.22-7.76,5.04-6.34,5.59,4.34,11.7,6.67,18.12,3.59,2.17-1.04,4.67-5.33,4.62-7.55-.06-2.58-3.28-6.63-5.77-7.59l-11.77-4.54c-4.67-1.8-8.9-6.98-9.44-10.87-.85-6.14.9-12.3,6-15.84,8.36-5.81,20.74-4.9,28.01,2.11-.29,2.12-3.85,5.8-5.6,5.63-4.41-2.96-9.9-5.11-15.39-2.85-1.94.8-4.5,4.72-4.54,6.75-.05,2.33,2.83,6.31,5.09,7.23l12.68,5.14c5.17,2.09,9.09,7.45,9.55,12.06.58,5.78-1.19,11.85-6.84,15.5Z"/>
    <path class="cls-3" d="M1346.47,611.12l-.5,20.95c-.05,2.1-7.57,2.42-7.57-.64l-.05-52.57c0-1.29,4.1-3.22,4.77-2.57l3.9,3.8c5.3-4.19,12.75-5.8,19.82-3.06,6.06,2.34,10.45,8.82,11.4,16.28s-2.72,15.3-8.54,19.2c-6.92,4.63-14.96,4.12-23.22-1.39ZM1370.32,595.5c0-6.81-5.52-12.33-12.33-12.33s-12.33,5.52-12.33,12.33,5.52,12.33,12.33,12.33,12.33-5.52,12.33-12.33Z"/>
    <path class="cls-5" d="M1089.84,610.61c10.05,4.88,13.02-3.79,18.05-2.88,1.29.24,3.19,3.94,2.12,5.18-3.95,4.54-13.5,7.31-20.43,5.16-6.13-1.9-12.21-7.15-13.34-14.79-1.27-8.61,1.19-16.94,8.04-21.29,6.76-4.29,16.64-4.76,23.12,1.47,4.59,4.41,6.08,11.2,5.28,17.45l-28.68.56c1.31,4.45,3.34,7.93,5.84,9.15ZM1105.06,594.72c-1.59-7.8-6.18-9.24-10.96-9.06s-8.82,3.18-9.76,9.17l20.72-.11Z"/>
    <path class="cls-5" d="M1136.97,610.82c10.67,4.12,12.46-4.53,17.89-2.83,1.13.35,2.88,3.46,1.94,4.55-6.3,7.33-21.23,9.06-28.92.7-8.76-9.53-7.08-25.36,4.23-31.92,6.56-3.8,14.91-3.26,20.49.77s7.81,11.91,6.72,18.98l-28.69.41c1.23,4.4,3.61,8.28,6.34,9.34ZM1151.89,594.7c-1.56-7.42-6.26-9.46-11.76-8.99-4.25.36-8.07,3.52-9.32,9.04l21.09-.04Z"/>
    <path class="cls-5" d="M1008.23,598.83c0,11.19-9.07,20.27-20.27,20.27s-20.27-9.07-20.27-20.27,9.07-20.27,20.27-20.27,20.27,9.07,20.27,20.27ZM1000.46,598.85c0-6.91-5.6-12.52-12.52-12.52s-12.52,5.6-12.52,12.52,5.6,12.52,12.52,12.52,12.52-5.6,12.52-12.52Z"/>
    <path class="cls-3" d="M1495.37,593.62l18.02,20c-12.08,6.78-19.85-12.7-26.44-18.31l-.37,17.65c-.04,1.73-5.96,1.9-7.99.9l-.03-58.6c2.09-.45,5.84-.47,8.04-.06l.18,37.06,14.45-14.75c1.73-1.77,8.06-1,11.04-.28l-16.89,16.38Z"/>
    <path class="cls-3" d="M1394.51,598.25c1.01,5.17,4.48,9.06,7.93,9.78,5.44,1.15,9.35-.53,14.11-3.89l5.02,4.34c-6.19,7.3-15.56,8.76-24.38,5.36-7.23-2.78-11.86-11.21-11.1-20.26.71-8.37,6.45-16.54,16.56-17.72,6.21-.72,12.81.97,16.36,5.55,3.3,4.25,5.92,11.62,3.25,16.32l-27.75.52ZM1415.47,591.62c-1.34-8.22-6.48-9.56-11.44-9.16-4.72.37-9.11,3.82-9.02,9.23l20.46-.07Z"/>
    <path class="cls-3" d="M1645.89,613.44c-3.76-2.03-5.74-7.59-5.28-11.29,1.52-12.11,18.06-10.81,25.92-12.14-.4-2.43-2.48-6.35-4.7-7.05-7.77-2.43-9.8,1.88-15.95,2.33-1.22.09-2.94-3.97-2.04-4.82,4.64-4.4,15.02-6.57,21.62-3.69,4.7,2.05,8.41,6.13,8.43,11.73l.09,23.86c0,1.09-3.83,3.19-4.5,2.54l-3.69-3.57c-5.03,3.63-12.38,6.15-19.9,2.1ZM1665.66,596.7c-3.83.13-8.53.54-12.25,1.07-3.29.46-5.9,5.81-3.63,8.77,2.34,3.05,8.2,3.01,11.7,1.11,3.02-1.64,5.73-6.09,4.18-10.95Z"/>
    <path class="cls-3" d="M1457.01,611.16c-5.34,4.05-13.18,6.37-20.35,2.13-3.18-1.88-5.29-7.41-4.78-11.07,1.71-12.15,18.27-11.09,25.98-12.14-.47-2.57-2.47-6.37-4.62-6.99-8.04-2.31-8.9,1.42-15.96,2.17-1.21.13-3.03-3.87-2.18-4.78,3.04-3.25,11.39-5.41,16.43-4.87,7.23.78,13.41,5.02,13.5,13.08l.27,23.74c.01,1.04-3.77,3.11-4.44,2.46l-3.85-3.73ZM1457.42,596.97c-7.04-.96-17.93.71-17.59,6.54.08,1.34,2.06,4.03,3.36,4.62,3.23,1.45,8.56.43,11.1-1.67,1.89-1.56,3.19-6.01,3.13-9.5Z"/>
    <path class="cls-5" d="M1030.19,586.89l-.24,29.57c-1.02,1-4.74,1.28-7.67,1.17l-.45-30.8-6.52-1.02c-1.48-.23-.85-5.3.6-5.71,1.45-.41,5.55-.02,5.61-1.25l.32-5.96c.27-4.96,1.23-10.66,4.29-13.32,3.95-3.43,11.35-3.63,14.84-1.03.18,1.25.07,4.73-1.05,4.94l-7.1,1.36c-3.52,1.88-3.32,10.77-2.24,14.34,2.8.46,6.76,1.07,8.5,2.04.87.49.01,4.92-.99,5.01l-7.9.67Z"/>
    <path class="cls-5" d="M1059.57,587.17l-.36,28.96c-.03,1.68-6.22,2.03-7.38.86l-.62-30.28-7-.86c-1.47-.18-.94-5.44.52-5.67l5.72-.92c3.1-.5-2.07-14.08,5.5-20.25,3.35-2.73,11.37-3.12,13.76-.37.74.85.14,4.45-.96,4.68l-6.85,1.47c-3.66,2.23-3.14,11.25-1.49,14.65l5.33.24c1.34.06,2.63,2.85,2.53,5.74l-8.68,1.77Z"/>
    <path class="cls-3" d="M1767.17,596.36c.3,4.52,2.81,8.86,5.27,10.29,8.07,4.66,11.11-1.19,17.08-.7,1.24.1,3.17,3.78,2.04,4.92-5.7,5.76-20.03,6.51-26.84-.78s-8.17-18.79-1.42-27.33c6.24-7.89,19.97-9.8,27.76-2.76,1.66,1.51-2.93,6.05-4.64,5.14-4.23-2.23-8.98-2.93-13.18-.93-3.36,1.6-6.47,6.26-6.07,12.15Z"/>
    <path class="cls-3" d="M1633.88,577.13c9.76,8.58-13.7,1.24-14.02,17.07l-.37,18.65c-.04,2.12-7.76,2.16-7.77.16l-.09-34.3c0-1.35,5.06-2.94,5.83-2.01l2.79,3.35c3.14-2.8,9.57-6.49,13.62-2.92Z"/>
    <rect class="cls-5" x="810.86" y="579.8" width="7.81" height="37.95" transform="translate(-.64 .88) rotate(-.06)"/>
    <path class="cls-3" d="M1746.99,612.88c0,2.14-8.2,2.3-8.2.24l-.06-34.87c1.07-1.53,5.8-1.85,8.1-1.17l.17,35.8Z"/>
    <circle class="cls-5" cx="814.71" cy="566.12" r="5.18"/>
    <circle class="cls-3" cx="1742.74" cy="562.95" r="5.27"/>
    <path class="cls-5" d="M1046.96,409.23c-10.51,28.84-42.93,38.16-70.06,25.37,1.96-7.13,3.94-13.38,6.5-19.42,13.99,5.07,27.51,5.25,36.96-5.26,6.25-6.96,9.35-18.16,9.38-27.95l.36-96.21,22.16-9.41.26,67.79c.04,10.22,7.71,19.61,18.72,19.66l58.62.24c-23.53-26.47-17.56-72.66,14.34-87.68,19.78-9.31,42.49-7.08,61.25,3.46l-6.3,19.11c-9.63-3.78-18.82-6.97-28.88-6.74-19.84.46-32.12,15.4-31.24,34.72.89,19.67,14.68,36.51,35.46,36.88l41.41.73-7.59,21.84-133.17.03c-8.07,0-15.64-2.43-22.64-5.74-.96,9.47-2.21,19.39-5.56,28.6Z"/>
    <path class="cls-5" d="M962.55,346.26l.33-58.99,22.28-10.47-.2,70.21c-.07,22.62-17.45,40-39.62,41.12-19.92,1.01-45.3,3.13-57.5-14.4-7.79,8.2-17.55,13.95-29.19,14.39-13.9.53-27.8.78-41.56-.17-13.71-.95-25.43-8.28-31.51-20.52-11.72,10.38-26.08,14.82-41.58,13.21-19.33-2.01-34.93-15.04-39.97-33.89-3.8-14.21-2.36-28.72,3.86-42.17,13.03-28.18,47.59-39.33,74.1-22.95l21.11-5.93.41,71.07c.06,10.26,8.11,19.05,18.27,19.27,11.3.25,22.12.29,33.2-.11,12.2-.45,20.32-10.3,20.3-21.84l-.07-57,22.74-9.94.41,69.51c.06,10.11,8.72,18.69,18.34,19.17,9.08.46,17.16.49,26.25.08,10.02-.45,19.54-8.59,19.6-19.66ZM772.19,352.84c5.26-3.71,8.35-10.27,8.36-15.83l.09-31.02c-12.37-12.61-33.61-14.6-46.59-.86-11.27,11.93-13.27,32.82-2.19,45.39,10.08,11.44,28.08,10.96,40.33,2.32Z"/>
    <path class="cls-5" d="M1328.98,388c-22.36,1.07-42.44-9.86-50.23-30.63-8.06-21.51-4.03-46.33,10.07-64.1,9.81-12.37,23.63-19.22,38.52-19.05,14.79.17,28.58,7.61,37.94,19.92,11.04,14.5,13.83,32.73,11.31,50.68-3.46,24.62-21.82,41.97-47.62,43.2ZM1327.27,366.51c15.97-.56,26.02-11.81,27.41-26.72,1.18-12.69-.52-24.98-9.08-34.76-5.1-5.83-12.02-9.7-19.5-9.5-22.47.62-32.88,29.1-27.24,50.71,3.42,13.15,14.65,20.75,28.41,20.27Z"/>
    <path class="cls-5" d="M1500.16,386.41c-1.77,20.77-11.75,39.76-30.87,48.39-19.85,8.96-41.6,6.26-61.45-2.16l5.3-19.5c11.88,4.39,22.5,6.9,34.48,5.5,17.18-2.01,29.96-15.78,29.55-32.45-12.4.14-23.36.08-34.3-2.41-37.07-8.42-44.2-47.72-34.16-78.43,6.58-20.14,24-31,44.72-32.03,24.83-1.24,44.46,14.97,46.43,40.64,1.26,16.41.6,32.76.91,50.2l46.54-.11c-10.51-13.52-13.33-29.51-8.47-45.35,3.91-12.72,12.71-22.3,26.12-26.73l-7.06-14.57c35.05-19.89,85.73-16.43,101.32,26.55,4.46,12.29,4.78,25.32,4.8,38.48.02,12.15,8.76,21.61,21.12,21.58l45.57-.12c-13.33-20.63-13.8-45.9-3.25-66.79,7.98-15.8,23.71-23.92,41.06-24.44,21.81-.65,39.94,13.06,43.84,34.93,2.58,14.48,2.61,29.63-.16,44.31-3.66,19.46-19.1,33.87-39.63,33.93l-90.23.26c-11.79.03-22.3-5.66-29.33-14.65-17.47,19.59-47.42,18.27-69.98,8.8-9.32,3.64-18.76,6.12-28.83,6.13l-54.05.05ZM1640.62,345.43c2.71-22.54-.79-48.79-25.72-56.26-11.54-3.46-24.13-3.16-34.67,1.88,11.11,2.81,20.36,7.4,25.91,17.1,10.05,17.56,8.66,39.09-3.04,55.77,15.49,2.35,35.31-.11,37.52-18.48ZM1783.63,359.56c11.31-8.36,9.16-37.6,6.7-48.73-2.28-10.32-10.45-16.43-20.46-16.73-11.18-.33-20.89,5.7-24.56,16.73-4.06,12.18-3.68,26.04,1.48,37.89,6.25,14.35,23.51,20.7,36.84,10.84ZM1478.06,364.14l-.17-44.75c-.02-6.52-2.63-15.08-7.67-19.32-12.19-10.26-32.03-5.95-38.91,8.25-5.44,11.24-5.73,23.89-2.18,35.62,6.52,21.59,29.96,20.93,48.92,20.2ZM1575.81,360.28c17.36-5.68,22.78-27.88,13.03-42.02-3.13-4.54-8.92-6.94-13.65-6.92-4.77.02-10.06,3-13.41,7.17-5.77,7.17-6.49,17.47-2.91,26.46,2.31,5.78,8.23,14.6,16.94,15.3Z"/>
    <rect class="cls-1" x="1220.49" y="454.91" width="72.36" height="72.36"/>
    <rect class="cls-1" x="1220.49" y="454.91" width="72.36" height="72.36" transform="translate(724.79 -748.86) rotate(45.44)"/>
    <text class="cls-4" transform="translate(1231.8 498.89)"><tspan x="0" y="0">ض</tspan></text>
    <rect class="cls-3" x="1786.86" y="222.91" width="27.43" height="27.43" transform="translate(269.15 1212.74) rotate(-40)"/>
    <rect class="cls-3" x="1752.33" y="222.91" width="27.43" height="27.43" transform="translate(261.08 1190.55) rotate(-40)"/>
    <rect class="cls-3" x="1323.96" y="222.91" width="27.43" height="27.43" transform="translate(160.86 915.2) rotate(-40)"/>
    <rect class="cls-3" x="1289.44" y="222.91" width="27.43" height="27.43" transform="translate(152.78 893.01) rotate(-40)"/>
    <rect class="cls-3" x="747.61" y="220.78" width="27.43" height="27.43" transform="translate(27.39 544.23) rotate(-40)"/>
    <rect class="cls-3" x="713.08" y="220.78" width="27.43" height="27.43" transform="translate(19.31 522.04) rotate(-40)"/>
    <rect class="cls-3" x="885.45" y="416.54" width="27.43" height="27.43" transform="translate(-66.2 678.63) rotate(-40)"/>
    <rect class="cls-3" x="850.92" y="416.54" width="27.43" height="27.43" transform="translate(-74.28 656.44) rotate(-40)"/>
    <rect class="cls-3" x="936.75" y="416.54" width="27.43" height="27.43" transform="translate(-54.2 711.61) rotate(-40)"/>
  </g>
</svg>